<svg xmlns="http://www.w3.org/2000/svg" width="27" height="27" fill-rule="nonzero"><rect stroke="#fff" stroke-width="2" fill="#fff" stroke-linejoin="round" x="1" y="1" width="25" height="25" rx="12.5"/><rect fill="#e2001c" x="1" y="1" width="25" height="25" rx="12.5"/><path d="M14.016 6.032c2.075.24 3.602 1.773 3.91 3.924l.007.05.037.372.02.316.006.092.003.037.002.028v.028c-.08 2.1-.777 3.757-2.2 5.004-.5.44-1.052.72-1.62.844l.776.953c.1.11.034.273-.09.31l-.057.01H14v2.805c0 .108-.224.195-.5.195-.242 0-.443-.067-.5-.156v-.04V18h-.81c-.14 0-.226-.148-.176-.27l.03-.05.777-.955c-.516-.113-1.024-.355-1.497-.726C9.33 14.44 8.45 11.25 9.356 8.868c.74-1.95 2.594-3.076 4.66-2.836zM10.9 9.252c-.074.194.022.41.216.485s.41-.022.485-.216c.235-.613.814-.96 1.476-.885.206.024.392-.124.416-.33s-.124-.392-.33-.416A2.12 2.12 0 0 0 10.9 9.252z" fill="#fff"/></svg>
