<svg xmlns="http://www.w3.org/2000/svg" width="23" height="23" fill-rule="nonzero"><rect stroke="#fff" stroke-width="2" fill="#fff" stroke-linejoin="round" x="1" y="1" width="21" height="21" rx="10.5"/><rect fill="#e2001c" x="1" y="1" width="21" height="21" rx="10.5"/><path d="M11.902 6.025c1.614.187 2.8 1.38 3.04 3.052l.005.04.03.29.02.302.003.044.002.022v.022c-.062 1.64-.604 2.922-1.71 3.892-.236.207-.487.37-.747.486l.414.507c.1.11.034.273-.09.31l-.057.01H12v1.854c0 .08-.224.146-.5.146-.242 0-.443-.05-.5-.117v-.03V15h-.81c-.14 0-.226-.148-.176-.27l.03-.05.415-.507a3.1 3.1 0 0 1-.651-.395c-1.55-1.214-2.235-3.693-1.53-5.547.576-1.516 2.018-2.392 3.625-2.206zm-2.508 2.36c-.055.142.016.3.158.356s.3-.016.356-.158c.173-.45.597-.705 1.082-.65.15.017.288-.09.305-.242s-.09-.288-.242-.305c-.734-.084-1.396.314-1.66 1z" fill="#fff"/></svg>
