<?xml version="1.0" encoding="UTF-8"?>
<svg version="1.1" id="car-repair-11" xmlns="http://www.w3.org/2000/svg" width="23" height="23" viewBox="0 0 23 23">
  <rect fill="none" x="0" y="0" width="23" height="23"></rect><rect x="1" y="1" rx="10.5" ry="10.5" width="21" height="21" stroke="#ffffff" style="stroke-linejoin:round;stroke-miterlimit:4;" fill="#ffffff" stroke-width="2"></rect><rect x="1" y="1" width="21" height="21" rx="10.5" ry="10.5" fill="#6d6d76"></rect>
  <path fill="#ffffff" transform="translate(6 6)"  d="M9.5,1.25H4.3517C4.0547,0.5176,3.3389,0,2.5,0C1.7616,0,1.1238,0.4047,0.7774,1H2.5L3,2L2.5,3H0.7774&#xA;&#x9;C1.1238,3.5953,1.7616,4,2.5,4c0.8389,0,1.5547-0.5176,1.8517-1.25H9.5c0.4141,0,0.75-0.3359,0.75-0.75S9.9141,1.25,9.5,1.25z"/>
  <path fill="#ffffff" transform="translate(6 6)" d="M8.3105,7.0344l-0.249-1.2043C7.9824,5.3491,7.5713,5,7.083,5H3.917C3.4287,5,3.0176,5.3491,2.9424,5.8101L2.6891,7.0355&#xA;&#x9;C2.2987,7.1191,2,7.4498,2,7.8651V10h0.5c0,0.5522,0.4477,1,1,1s1-0.4478,1-1h2c0,0.5522,0.4477,1,1,1s1-0.4478,1-1H9V7.8597&#xA;&#x9;C9,7.4453,8.7008,7.1157,8.3105,7.0344z M3.75,9C3.3358,9,3,8.6642,3,8.25C3,7.8358,3.3358,7.5,3.75,7.5S4.5,7.8358,4.5,8.25&#xA;&#x9;C4.5,8.6642,4.1642,9,3.75,9z M3.7134,7L3.917,6l3.1621,0.0122L7.2831,7H3.7134z M7.25,9C6.8358,9,6.5,8.6642,6.5,8.25&#xA;&#x9;c0-0.4142,0.3358-0.75,0.75-0.75S8,7.8358,8,8.25C8,8.6642,7.6642,9,7.25,9z"/>
</svg>
