<?xml version="1.0" encoding="UTF-8"?>
<svg id="confectionary-11" xmlns="http://www.w3.org/2000/svg" width="23" height="23" viewBox="0 0 23 23">
  <rect fill="none" x="0" y="0" width="23" height="23"></rect><rect x="1" y="1" rx="10.5" ry="10.5" width="21" height="21" stroke="#ffffff" style="stroke-linejoin:round;stroke-miterlimit:4;" fill="#ffffff" stroke-width="2"></rect><rect x="1" y="1" width="21" height="21" rx="10.5" ry="10.5" fill="#d76600"></rect>
  <g id="confectionary-11" fill="#ffffff" transform="translate(6 6)">
    <path d="M9.2407,2.513a.7461.7461,0,0,0-.7461-.7461.7461.7461,0,1,0-1.4922,0V3.5132A2.4888,2.4888,0,0,0,3.5113,7H1.7485a.7461.7461,0,0,0,0,1.4922.7461.7461,0,0,0,.7461.7461.7461.7461,0,0,0,1.4922,0V7.4778A2.4887,2.4887,0,0,0,7.493,4.0052H9.2407a.7461.7461,0,0,0,0-1.4922ZM5.5,7.2842a1.7824,1.7824,0,0,1-.72-3.4135.8158.8158,0,0,1,.2438.1772A1.6481,1.6481,0,0,1,5.3252,5.124v.7373a1.9718,1.9718,0,0,0,.3877,1.3213,1.1554,1.1554,0,0,0,.0958.07A1.7759,1.7759,0,0,1,5.5,7.2842Zm.72-.1549a.8158.8158,0,0,1-.2438-.1772A1.6481,1.6481,0,0,1,5.6748,5.876V5.1387a1.9718,1.9718,0,0,0-.3877-1.3213,1.1554,1.1554,0,0,0-.0958-.07A1.78,1.78,0,0,1,6.22,7.1293Z"/>
  </g>
</svg>
