<svg xmlns="http://www.w3.org/2000/svg" width="27" height="27" fill-rule="nonzero"><rect stroke="#fff" stroke-width="2" fill="#fff" stroke-linejoin="round" x="1" y="1" width="25" height="25" rx="12.5"/><rect fill="#e2001c" x="1" y="1" width="25" height="25" rx="12.5"/><path d="M13.5 17.5a.5.5 0 0 1 .492.41L14 18v3a.5.5 0 0 1-.992.09L13 21v-3a.5.5 0 0 1 .5-.5zm3.464-1.23l.07.058 2.123 2.122a.5.5 0 0 1-.638.765l-.07-.058-2.122-2.123a.5.5 0 0 1 .638-.765zm-6.29.058a.5.5 0 0 1 .058.638l-.058.07-2.123 2.123a.5.5 0 0 1-.765-.638l.058-.07 2.123-2.122a.5.5 0 0 1 .707 0zM13.5 12a1.5 1.5 0 1 1 0 3 1.5 1.5 0 1 1 0-3zM9 13a.5.5 0 0 1 .09.992L9 14H6a.5.5 0 0 1-.09-.992L6 13h3zm12 0a.5.5 0 0 1 .09.992L21 14h-3a.5.5 0 0 1-.09-.992L18 13h3zM8.482 7.786l.07.058 2.123 2.123a.5.5 0 0 1-.638.765l-.07-.058L7.844 8.55a.5.5 0 0 1 .638-.765zm10.674.058a.5.5 0 0 1 .058.638l-.058.07-2.123 2.123a.5.5 0 0 1-.765-.638l.058-.07 2.122-2.123a.5.5 0 0 1 .707 0zM13.5 5.5a.5.5 0 0 1 .492.41L14 6v3a.5.5 0 0 1-.992.09L13 9V6a.5.5 0 0 1 .5-.5z" fill="#fff"/></svg>
