<svg xmlns="http://www.w3.org/2000/svg" width="23" height="23" fill-rule="nonzero"><rect stroke="#fff" stroke-width="2" fill="#fff" stroke-linejoin="round" x="1" y="1" width="21" height="21" rx="10.5"/><rect fill="#e2001c" x="1" y="1" width="21" height="21" rx="10.5"/><path d="M11.5 14.3a.5.5 0 0 1 .492.41l.008.1V17a.5.5 0 0 1-.992.09L11 17v-2.2a.5.5 0 0 1 .5-.5zm2.616-.88l.07.058 1.556 1.556a.5.5 0 0 1-.638.765l-.07-.058-1.556-1.556a.5.5 0 0 1 .638-.765zm-4.595.058a.5.5 0 0 1 .058.638l-.058.07-1.556 1.556a.5.5 0 0 1-.765-.638l.058-.07 1.556-1.556a.5.5 0 0 1 .707 0zM11.5 10a1.5 1.5 0 1 1 0 3 1.5 1.5 0 1 1 0-3zm-3.3 1a.5.5 0 0 1 .09.992L8.2 12H6a.5.5 0 0 1-.09-.992L6 11h2.2zm8.8 0a.5.5 0 0 1 .09.992L17 12h-2.2a.5.5 0 0 1-.09-.992l.1-.008H17zM7.896 7.2l.07.058 1.556 1.556a.5.5 0 0 1-.638.765l-.07-.058-1.556-1.556a.5.5 0 0 1 .638-.765zm7.846.058a.5.5 0 0 1 .058.638l-.058.07-1.556 1.556a.5.5 0 0 1-.765-.638l.058-.07 1.556-1.556a.5.5 0 0 1 .707 0zM11.5 5.5a.5.5 0 0 1 .492.41L12 6v2.2a.5.5 0 0 1-.992.09L11 8.2V6a.5.5 0 0 1 .5-.5z" fill="#fff"/></svg>
