<svg xmlns="http://www.w3.org/2000/svg" width="23" height="23" fill-rule="evenodd"><rect stroke="#fff" stroke-width="2" fill="#fff" stroke-linejoin="round" x="1" y="1" width="21" height="21" rx="10.5"/><rect fill="#6d6d76" x="1" y="1" width="21" height="21" rx="10.5"/><path d="M9.145 5.698v1.02h4.02l-.005-1.02h.98l.008 2.99h-.98l-.003-.95-1.835.007c.408.712 1.172 1.92 1.2 2.504.025.492.194 1.39.508 1.583.298.183.917.75 1.088 1.267s.947 1.748 1.677 3.262c.104.216.015.464-.204.53a.51.51 0 0 1-.57-.208l-2.373-2.913-1.45 1.167-.265 1.792c-.05.35-.578.372-.732.004V15.36c-.007-.45.025-.852.167-1.06.095-.138.317-.322.667-.55 0 0-1.128.14-1.406-.24s.138-1.3.673-2.058l1.146-.874c-.13-.5-.707-2.1-1.063-2.83l-1.248.008v.934h-.983l-.01-2.99h.992zm1.742 6.407c-.028.02-.552.826-.41.952s1.234.02 1.475-.067l-1.066-.885zM10.005 9a1 1 0 1 1 0 2C9.448 11 9 10.55 9 10A1 1 0 0 1 10.005 9zM7.902 5.734L7.91 8.1l-.71.002-.01-2.36h.71zm7.174 0l.01 2.356-.71.002-.01-2.355.708-.003z" fill="#fff"/></svg>
