<svg xmlns="http://www.w3.org/2000/svg" width="27" height="27" fill-rule="evenodd"><rect stroke="#fff" stroke-width="2" fill="#fff" stroke-linejoin="round" x="1" y="1" width="25" height="25" rx="12.5"/><rect fill="#6d6d76" x="1" y="1" width="25" height="25" rx="12.5"/><path d="M9.996 6.01v1.02h4.02l-.005-1.02H15L14.998 9h-.98l-.003-.95-1.665.004c.434.936 1.583 3.3 1.628 4.197.034.67.285 1.903.713 2.166.407.25 1 .743 1.224 1.45s1.693 2.853 2.726 4.263c.177.242.02.632-.28.722-.29.088-.605-.027-.778-.284l-3.236-3.972-1.978 1.59-.36 2.444c-.07.478-.79.507-.998.006v-1.874c-.01-.615.034-1.162.228-1.445.13-.19.432-.44.9-.75 0 0-1.538.19-1.917-.33s.188-1.786.918-2.806l1.563-1.192c-.202-.774-1.18-3.465-1.625-4.184l.003.005-1.095.005V9h-.983l-.01-2.99h.992zm1.792 8.315c-.03.027-.563 1.126-.417 1.3s1.26.026 1.504-.09l-1.087-1.207zm-1.503-3.765a1.14 1.14 0 0 1 1.135 1.139 1.14 1.14 0 0 1-1.135 1.14c-.635 0-1.145-.512-1.145-1.14s.5-1.14 1.145-1.14zM8.753 6.045l.01 2.357-.71.002-.01-2.36h.71zm7.174 0l.01 2.356-.71.002-.01-2.355.708-.003z" fill="#fff"/></svg>
