<?xml version="1.0" encoding="UTF-8"?>
<svg version="1.1" id="furniture-11" xmlns="http://www.w3.org/2000/svg" width="23" height="23" viewBox="0 0 23 23">
  <rect fill="none" x="0" y="0" width="23" height="23"></rect><rect x="1" y="1" rx="10.5" ry="10.5" width="21" height="21" stroke="#ffffff" style="stroke-linejoin:round;stroke-miterlimit:4;" fill="#ffffff" stroke-width="2"></rect><rect x="1" y="1" width="21" height="21" rx="10.5" ry="10.5" fill="#a125be"></rect>
  <g fill="#ffffff" transform="translate(6 6)">
    <path d="M6,7.5552V6c0-0.2762-0.2239-0.5-0.5-0.5S5,5.7238,5,6v1.5552c-0.9391,0.1914-1.6886,0.9044-1.9231,1.827&#xA;&#x9;&#x9;C2.9976,9.6944,3.244,10,3.566,10H7.434c0.3221,0,0.5685-0.3056,0.4891-0.6177C7.6886,8.4596,6.9391,7.7466,6,7.5552z"/>
    <path d="M9.1348,4.2697L7.6395,1.2789C7.554,1.108,7.3793,1,7.1881,1H3.8119C3.6207,1,3.446,1.108,3.3605,1.2789L1.8652,4.2697&#xA;&#x9;&#x9;C1.6974,4.6052,1.9414,5,2.3166,5H7v0.75C7,5.8881,7.1119,6,7.25,6S7.5,5.8881,7.5,5.75V5h1.1834&#xA;&#x9;&#x9;C9.0586,5,9.3026,4.6052,9.1348,4.2697z"/>
  </g>
</svg>
