<svg xmlns="http://www.w3.org/2000/svg" viewBox="0 0 23 23" height="23" width="23"><title>hospital-11.svg</title><rect fill="none" x="0" y="0" width="23" height="23"></rect><rect x="1" y="1" rx="10.5" ry="10.5" width="21" height="21" stroke="#ffffff" style="stroke-linejoin:round;stroke-miterlimit:4;" fill="#ffffff" stroke-width="2"></rect><rect x="1" y="1" width="21" height="21" rx="10.5" ry="10.5" fill="#1777cb"></rect><path fill="#ffffff" transform="translate(6 6)" d="M10,4H7V1C6.9616,0.4644,6.5356,0.0384,6,0H5C4.4644,0.0384,4.0384,0.4644,4,1v3H1C0.4644,4.0384,0.0384,4.4644,0,5v1
	c0.0384,0.5356,0.4644,0.9616,1,1h3v3c0.0384,0.5356,0.4644,0.9616,1,1h1c0.5356-0.0384,0.9616-0.4644,1-1V7h3
	c0.5356-0.0384,0.9616-0.4644,1-1V5C11,4.4477,10.5523,4,10,4z"></path></svg>
