<svg xmlns="http://www.w3.org/2000/svg" viewBox="0 0 23 23" height="23" width="23"><title>information-11.svg</title><rect fill="none" x="0" y="0" width="23" height="23"></rect><rect x="1" y="1" rx="10.5" ry="10.5" width="21" height="21" fill="none"></rect><rect x="1" y="1" width="21" height="21" rx="10.5" ry="10.5" fill="none"></rect><path fill="#8C94A0" transform="translate(6 6)" d="
	M5.5989,0.9391c-0.6,0-1.1,0.5-1.1,1.1s0.5,1.1,1.1,1.1s1.1-0.5,1.1-1.1S6.1989,0.9391,5.5989,0.9391z M3,4L2.9989,4.7391
	C2.9989,4.7391,4.5,4.6353,4.5,6v1.5c0,1.5-1.5011,1.7391-1.5011,1.7391L3,10h5.2L8.1989,9.2391c0,0-1.2,0-1.2-1.5L7,5c0,0,0-1-1-1
	H3z"></path></svg>
