<?xml version="1.0" encoding="UTF-8"?>
<svg version="1.1" id="jewelry-store-11" xmlns="http://www.w3.org/2000/svg" width="23" height="23" viewBox="0 0 23 23">
  <rect fill="none" x="0" y="0" width="23" height="23"></rect><rect x="1" y="1" rx="10.5" ry="10.5" width="21" height="21" stroke="#ffffff" style="stroke-linejoin:round;stroke-miterlimit:4;" fill="#ffffff" stroke-width="2"></rect><rect x="1" y="1" width="21" height="21" rx="10.5" ry="10.5" fill="#a125be"></rect>
  <path fill="#ffffff" transform="translate(6 6)"  d="M7.574,3.6944L6.7227,4.3329C7.4811,4.7628,8,5.5677,8,6.5C8,7.8785,6.8785,9,5.5,9S3,7.8785,3,6.5&#xA;&#x9;c0-0.9323,0.5189-1.7372,1.2773-2.1671L3.426,3.6944C2.5652,4.332,2,5.3465,2,6.5C2,8.433,3.567,10,5.5,10S9,8.433,9,6.5&#xA;&#x9;C9,5.3465,8.4348,4.332,7.574,3.6944z M7.5,2.5L6.5,1h-2l-1,1.5l2,1.5L7.5,2.5z"/>
</svg>
