<svg xmlns="http://www.w3.org/2000/svg" viewBox="0 0 27 27" height="27" width="27"><title>laundry-15.svg</title><rect fill="none" x="0" y="0" width="27" height="27"></rect><rect x="1" y="1" rx="12.5" ry="12.5" width="25" height="25" stroke="#ffffff" style="stroke-linejoin:round;stroke-miterlimit:4;" fill="#ffffff" stroke-width="2"></rect><rect x="1" y="1" width="25" height="25" rx="12.5" ry="12.5" fill="#6d6d76"></rect><path fill="#ffffff" transform="translate(6 6)" d="M8,1L6,3H3c0,0-1,0-1,1v9c0,1,1,1,1,1h9c0,0,1,0,1-1V2c0-1-1-1-1-1
	S8,1,8,1z M8.5,2h2C10.777,2,11,2.223,11,2.5S10.777,3,10.5,3h-2C8.223,3,8,2.777,8,2.5S8.223,2,8.5,2z M7.5,6
	c1.6569,0,3,1.3431,3,3s-1.3431,3-3,3s-3-1.3431-3-3S5.8431,6,7.5,6z"></path></svg>
