<svg xmlns="http://www.w3.org/2000/svg" width="27" height="27" fill-rule="nonzero"><rect stroke="#fff" stroke-width="2" fill="#fff" stroke-linejoin="round" x="1" y="1" width="25" height="25" rx="12.5"/><rect fill="#5c6f84" x="1" y="1" width="25" height="25" rx="12.5"/><path d="M13.513 6C10.74 6 8.5 8.098 8.5 10.696c0 3.447 3.813 8.868 4.773 10.192.107.15.347.15.453 0 .96-1.324 4.773-6.744 4.773-10.192C18.526 8.098 16.286 6 13.513 6zm-.013 7a2 2 0 0 1-2-2c0-1.093.907-2 2-2s2 .907 2 2a2 2 0 0 1-2 2z" fill="#fff"/></svg>