<svg xmlns="http://www.w3.org/2000/svg" width="23" height="23" fill-rule="nonzero"><rect stroke="#fff" stroke-width="2" fill="#fff" stroke-linejoin="round" x="1" y="1" width="21" height="21" rx="10.5"/><rect fill="#5c6f84" x="1" y="1" width="21" height="21" rx="10.5"/><path d="M11.676 6C9.643 6 8 7.54 8 9.444c0 2.528 2.796 6.503 3.5 7.474a.21.21 0 0 0 .332 0c.704-.97 3.5-4.946 3.5-7.474C15.353 7.54 13.7 6 11.676 6zm-.01 5.133c-.82 0-1.467-.665-1.467-1.467A1.48 1.48 0 0 1 11.667 8.2a1.48 1.48 0 0 1 1.467 1.467c0 .802-.648 1.467-1.467 1.467z" fill="#fff"/></svg>