<?xml version="1.0" encoding="UTF-8"?>
<svg width="27px" height="27px" viewBox="0 0 27 27" version="1.1" xmlns="http://www.w3.org/2000/svg" xmlns:xlink="http://www.w3.org/1999/xlink">
    <!-- Generator: Sketch 59.1 (86144) - https://sketch.com -->
    <title>parkingbike-15</title>
    <desc>Created with Sketch.</desc>
    <rect id="Rectangle" stroke="#123295" stroke-width="2" fill="#FFFFFF" fill-rule="nonzero" stroke-linejoin="round" x="1" y="1" width="25" height="25" rx="12.5"></rect>
    <rect id="Rectangle" fill="#FFFFFF" fill-rule="nonzero" x="1" y="1" width="25" height="25" rx="12.5"></rect>
    <path d="M18,14.5c-0.9532,0.7086,-2.1239,1.0623,-3.31,1h-2.75v4.63h-2.79v-13h5.72c1.1305,-0.0605,2.244,0.2952,3.13,1c0.8321,0.8147,1.2543,1.9601,1.15,3.12c0.127,1.201,-0.295,2.396,-1.15,3.25zm-2.1,-4.67c-0.425,-0.311,-0.945,-0.463,-1.47,-0.43h-2.49v3.82h2.49c0.5315,0.0326,1.056,-0.1351,1.47,-0.47c0.3795,-0.3947,0.5693,-0.9346,0.52,-1.48c0.054,-0.534,-0.137,-1.064,-0.52,-1.44z" fill="#123295"></path>
</svg>
