<?xml version="1.0" encoding="UTF-8"?>
<svg width="23px" height="23px" viewBox="0 0 23 23" version="1.1" xmlns="http://www.w3.org/2000/svg" xmlns:xlink="http://www.w3.org/1999/xlink">
    <!-- Generator: Sketch 59.1 (86144) - https://sketch.com -->
    <title>parkingbike-11</title>
    <desc>Created with Sketch.</desc>
    <rect id="Rectangle" stroke="#123295" stroke-width="2" fill="#FFFFFF" fill-rule="nonzero" stroke-linejoin="round" x="1" y="1" width="21" height="21" rx="10.5"></rect>
    <rect id="Rectangle" fill="#FFFFFF" fill-rule="nonzero" x="1" y="1" width="21" height="21" rx="10.5"></rect>
    <path d="M14.5,12c-0.664,0.479,-1.473,0.712,-2.29,0.66h-1.91v3.24h-1.9v-9h3.93c0.7801,-0.0414,1.5484,0.2041,2.16,0.69c0.581,0.562,0.878,1.355,0.81,2.16c0.088,0.833,-0.206,1.66,-0.8,2.25zm-1.46,-3.24c-0.289,-0.2119,-0.6421,-0.3178,-1,-0.3h-1.74v2.65h1.72c0.3612,0.0191,0.717,-0.0947,1,-0.32c0.2559,-0.2675,0.3867,-0.6308,0.36,-1c0.052,-0.377,-0.073,-0.758,-0.34,-1.03z" fill="#123295"/>
</svg>
