<svg xmlns="http://www.w3.org/2000/svg" width="27" height="27" fill-rule="nonzero"><rect id="Rectangle" stroke="#123295" stroke-width="2" fill="#FFFFFF" fill-rule="nonzero" stroke-linejoin="round" x="1" y="1" width="25" height="25" rx="12.5"></rect><rect id="Rectangle" fill="#FFFFFF" fill-rule="nonzero" x="1" y="1" width="25" height="25" rx="12.5"></rect><path d="M20.4000447,13.3087198 C20.819902,13.7149121 21.034928,14.2883387 20.9856903,14.8704415 C21.0496052,15.4723551 20.8368207,16.0707258 20.4072749,16.4972349 C19.927407,16.8434165 19.3421229,17.0120969 18.7515607,16.9744276 L17.3705939,16.9744276 L17.3705939,19.3170101 L15.9968573,19.3170101 L15.9968573,12.8098365 L18.8383231,12.8098365 C19.4023504,12.7799035 19.9578461,12.9574048 20.4000447,13.3087198 Z M14.3761175,7.30998255 L14.4026829,7.39621056 L14.7981933,9.25694074 L15.8194089,10.7830676 C16.0643335,10.6655775 16.3206816,10.5667194 16.5975952,10.5078596 C18.050455,10.1990448 19.4917688,10.8479555 20.2597039,12.0247926 C19.6375409,11.4546263 18.8078439,11.1065843 17.8968573,11.1065843 C16.4222239,11.1065843 15.1605902,12.0185444 14.6451752,13.3092457 L14.6286783,13.3151954 C14.6330591,13.3157723 14.6374311,13.3163775 14.6417939,13.3170109 C14.4836377,13.7170713 14.3968573,14.1516935 14.3968573,14.6065843 C14.3968573,14.7581919 14.4064966,14.907548 14.425196,15.0540734 C14.1831658,14.9967893 13.9530476,14.8228635 13.8717552,14.4594073 L13.8503576,14.3311357 C13.7267939,13.2554547 14.1209484,12.2236111 14.8422204,11.4894526 L14.9907799,11.3466652 L14.2967763,10.3080607 L12.0266159,13.1926896 C12.4592642,13.6457372 12.7843419,14.2117178 12.9236219,14.8669788 C13.3242885,16.7519671 12.1127845,18.6175197 10.2277962,19.0181864 C8.34280799,19.418853 6.47725533,18.2073489 6.07658871,16.3223607 C5.67592209,14.4373724 6.88742616,12.5718198 8.7724144,12.1711532 C9.23848776,12.0720862 9.70001073,12.0809442 10.1409707,12.1675239 L10.359663,12.2171508 L8.9946367,10.0792372 L8.35659102,10.214858 C7.72865803,10.3576763 7.50647821,9.45987922 8.05981605,9.26107162 L8.14867933,9.23671035 L10.1049745,8.82088697 C10.7329075,8.67806858 10.9550873,9.5758657 10.4017495,9.7746733 L10.3128862,9.79903457 L10.0415481,9.85670927 L11.5354358,12.1968503 L13.7916242,9.33113965 L13.5284911,8.09319605 L12.0612697,8.40506359 C11.4333367,8.54788198 11.2111569,7.65008486 11.7644816,7.4512155 L11.8533428,7.4268445 L13.809638,7.01102112 C14.0496972,6.95999497 14.2862066,7.09064327 14.3761175,7.30998255 Z M8.98032609,13.1493008 C7.62392881,13.4376119 6.76644596,14.7581495 7.05473631,16.114449 C7.34302666,17.4707484 8.66358508,18.3283291 10.0198845,18.0400388 C11.376184,17.7517484 12.2337647,16.43119 11.9454743,15.0748905 C11.8711632,14.7252843 11.7223086,14.4140994 11.5258943,14.1435874 L11.4025544,13.986179 L9.89338962,15.904369 C9.49812459,16.4039889 8.7633998,15.8606102 9.05985428,15.3536732 L9.10680022,15.2848727 L10.615965,13.3666826 C10.1273418,13.122129 9.55968291,13.0261547 8.98032609,13.1493008 Z M18.6286475,13.9377466 L17.3705939,13.9377466 L17.3705939,15.8537477 L18.6141871,15.8537477 C18.8753416,15.8675574 19.1325919,15.7852778 19.3372064,15.6223816 C19.522227,15.4289739 19.6167979,15.166301 19.5974933,14.8993623 C19.6353072,14.6264225 19.5445683,14.351386 19.3516667,14.1546524 C19.1427142,14.0014446 18.8874161,13.9248769 18.6286475,13.9377466 Z" fill="#123295"></path></svg>