<svg xmlns="http://www.w3.org/2000/svg" viewBox="0 0 23 23" height="23" width="23"><title>prison-11.svg</title><rect fill="none" x="0" y="0" width="23" height="23"></rect><rect x="1" y="1" rx="10.5" ry="10.5" width="21" height="21" stroke="#ffffff" style="stroke-linejoin:round;stroke-miterlimit:4;" fill="#ffffff" stroke-width="2"></rect><rect x="1" y="1" width="21" height="21" rx="10.5" ry="10.5" fill="#6d6d76"></rect><path fill="#ffffff" transform="translate(6 6)" d="M2,1v9h7V1H2z M3,2h1v3H3V2z M5,2h1v3H5V2z M7,2h1v2H7V2z M7.5,5C7.7761,5,8,5.2239,8,5.5S7.7761,6,7.5,6
	S7,5.7761,7,5.5S7.2239,5,7.5,5z M3,6h1v3H3V6z M5,6h1v3H5V6z M7,7h1v2H7V7z"></path></svg>
