<svg xmlns="http://www.w3.org/2000/svg" viewBox="0 0 27 27" height="27" width="27"><title>prison-15.svg</title><rect fill="none" x="0" y="0" width="27" height="27"></rect><rect x="1" y="1" rx="12.5" ry="12.5" width="25" height="25" stroke="#ffffff" style="stroke-linejoin:round;stroke-miterlimit:4;" fill="#ffffff" stroke-width="2"></rect><rect x="1" y="1" width="25" height="25" rx="12.5" ry="12.5" fill="#6d6d76"></rect><path fill="#ffffff" transform="translate(6 6)" d="M3.5,1v13H12V1H3.5z M9.5,2H11v3.5H9.5V2z M4.5,2.0547H6V7H4.5V2.0547z M7,2.0547h1.5V7H7V2.0547z M10.25,6.5
	C10.6642,6.5,11,6.8358,11,7.25S10.6642,8,10.25,8l0,0C9.8358,8,9.5,7.6642,9.5,7.25l0,0C9.5,6.8358,9.8358,6.5,10.25,6.5z M7,8
	h1.4727L8.5,13H7.0273L7,8z M4.5,8.166H6V13H4.5V8.166z M9.5,9H11v4H9.5V9z"></path></svg>
