<svg xmlns="http://www.w3.org/2000/svg" viewBox="0 0 23 23" height="23" width="23"><title>religious-muslim-11.svg</title><rect fill="none" x="0" y="0" width="23" height="23"></rect><rect x="1" y="1" rx="10.5" ry="10.5" width="21" height="21" stroke="#ffffff" style="stroke-linejoin:round;stroke-miterlimit:4;" fill="#ffffff" stroke-width="2"></rect><rect x="1" y="1" width="21" height="21" rx="10.5" ry="10.5" fill="#6d6d76"></rect><path fill="#ffffff" transform="translate(6 6)" d="M4.9,0C2.2,0,0,2.2,0,4.9
	s2.2,4.9,4.9,4.9c0.9,0,1.7-0.2,2.4-0.6H6.7c-2.4,0-4.3-1.9-4.3-4.3s1.9-4.3,4.3-4.3h0.6C6.5,0.2,5.8,0,4.9,0z M8.5,2L7.6845,3.7
	L6,4l1,1.5L6.5,7l2-1l2,1L10,5.5L11,4L9.5,3.7L8.5,2z"></path></svg>
