<svg xmlns="http://www.w3.org/2000/svg" width="23" height="23" fill-rule="evenodd"><rect stroke="#fff" stroke-width="2" fill="#fff" stroke-linejoin="round" x="1" y="1" width="21" height="21" rx="10.5"/><rect fill="#e2001c" x="1" y="1" width="21" height="21" rx="10.5"/><path d="M15.386 8.477c-.7 1-1.658 1.103-2.672.506-.068-.045-.383-.214-.45-.26-1.634-.968-3.27-.585-4.364.946-.462.653.61 1.27 1.07.63.565-.8 1.286-1.025 2.075-.777L9.793 11.91c-.496.98-1.89 2.478-2.938 1.87-.768-.45-1.22.624-.476 1.092 1.256.79 3.452-.245 4.32-1.35.023.023.056.034.1.045.71.247 1.42.728 1.642 1.013.386.5.616 1.293.74 1.93.145.74 1.69.676 1.46-.472-.178-.887-.413-1.717-1.008-2.442-.285-.346-1.126-1-1.7-1.27l1.03-1.894c1.33.405 2.594-.067 3.496-1.328.462-.653-.61-1.272-1.072-.63m-2.1-.154c.637 0 1.156-.522 1.156-1.162A1.16 1.16 0 0 0 13.285 6c-.647 0-1.167.522-1.167 1.16s.52 1.162 1.167 1.162" fill="#fff"/></svg>
