<svg xmlns="http://www.w3.org/2000/svg" width="27" height="27" fill-rule="evenodd"><rect stroke="#fff" stroke-width="2" fill="#fff" stroke-linejoin="round" x="1" y="1" width="25" height="25" rx="12.5"/><rect fill="#e2001c" x="1" y="1" width="25" height="25" rx="12.5"/><path d="M18.8 9.378c-.97 1.35-2.26 1.504-3.644.69-.093-.062-.523-.29-.615-.353-2.23-1.32-4.46-.798-5.95 1.3-.63.9.83 1.734 1.46.86.77-1.1 1.753-1.397 2.83-1.06l-1.707 3.254c-.676 1.335-2.576 3.38-4.006 2.55-1.047-.615-1.664.85-.65 1.49 1.712 1.076 4.708-.334 5.89-1.84.03.03.077.046.123.062.97.337 1.937.993 2.24 1.382.527.68.84 1.764 1.01 2.633.198 1 2.305.922 2-.643-.243-1.21-.563-2.342-1.375-3.33-.39-.472-1.536-1.35-2.305-1.733l1.403-2.583c1.814.553 3.537-.092 4.767-1.81.63-.9-.83-1.734-1.46-.86m-2.865-.2c.868 0 1.577-.712 1.577-1.585S16.802 6 15.934 6c-.882 0-1.59.712-1.59 1.583s.71 1.585 1.59 1.585" fill="#fff"/></svg>
