<svg xmlns="http://www.w3.org/2000/svg" viewBox="0 0 26 20" height="20" width="26"><title>us-highway-3.svg</title><g><path fill="#ffffff" d="M13,18.5a.5.5,0,0,1-.38-.17c-.57-.65-3.09-.78-4-.82l-.37,0c-1.6-.08-4.59-.22-6.08-1.81C-.48,12.89.56,9.84,1.56,7.78S1.49,4.67.7,3.9a.57.57,0,0,1-.17-.4.53.53,0,0,1,.16-.39l3-2.5a.5.5,0,0,1,.68,0A6.46,6.46,0,0,0,8.5,2,6.56,6.56,0,0,0,12.64.65.5.5,0,0,1,13,.5h0a.5.5,0,0,1,.35.15A6.52,6.52,0,0,0,17.5,2,6.41,6.41,0,0,0,21.63.65a.5.5,0,0,1,.68,0l3,2.5a.5.5,0,0,1,0,.74c-.83.8-1.91,1.85-.9,3.92s2,5.11-.58,7.9c-1.49,1.59-4.48,1.73-6.08,1.81l-.37,0c-.95,0-3.46.17-4,.82A.5.5,0,0,1,13,18.5Z"></path><path fill="#222" d="M22,1l3,2.5c-.78.76-2.19,2.06-1,4.5s1.69,5-.5,7.33c-1.44,1.53-4.57,1.59-6,1.67-1.16.06-3.76.16-4.5,1-.74-.84-3.34-.94-4.5-1-1.43-.07-4.56-.14-6-1.67C.31,13,.81,10.45,2,8S1.78,4.26,1,3.5L4,1A6.94,6.94,0,0,0,8.5,2.5,7,7,0,0,0,13,1a7,7,0,0,0,4.5,1.5A6.84,6.84,0,0,0,22,1m0-1a1,1,0,0,0-.72.3A6,6,0,0,1,17.5,1.5,6.1,6.1,0,0,1,13.71.29,1,1,0,0,0,13,0h0a1,1,0,0,0-.71.3A6.11,6.11,0,0,1,8.5,1.5,6,6,0,0,1,4.71.3,1,1,0,0,0,3.36.23l-3,2.5A1,1,0,0,0,.3,4.22l0,0C1.1,5,2,5.82,1.11,7.56,0,9.75-1.05,13,1.77,16c1.63,1.74,4.75,1.89,6.42,2h.37c2.82.14,3.52.47,3.68.66A1,1,0,0,0,13,19h0a1,1,0,0,0,.75-.34c.16-.18.86-.51,3.68-.66h.37c1.67-.08,4.79-.23,6.42-2,2.83-3,1.74-6.27.67-8.46-.85-1.75,0-2.57.76-3.3l0,0a1,1,0,0,0-.06-1.49l-3-2.5A1,1,0,0,0,22,0Z"></path></g><path fill="none" d="M0,0L26,0 26,20 0,20z"></path><path fill="none" d="M0,0L26,0 26,20 0,20z"></path></svg>