<svg xmlns="http://www.w3.org/2000/svg" viewBox="0 0 32 20" height="20" width="32"><title>us-highway-4.svg</title><g><path fill="#ffffff" d="M16,18.5a.5.5,0,0,1-.41-.22c-.37-.55-1.48-.83-3.29-.83-.46,0-.89,0-1.28,0l-.8,0H10l-.42,0c-1.94-.08-6-.26-7.42-1.8C-.48,12.89.56,9.84,1.56,7.78S1.49,4.67.7,3.9a.57.57,0,0,1-.17-.4.53.53,0,0,1,.16-.39l3-2.5A.5.5,0,0,1,4,.5a.5.5,0,0,1,.24.06A13.51,13.51,0,0,0,10,2,14,14,0,0,0,15.77.56a.5.5,0,0,1,.46,0A14.18,14.18,0,0,0,22,2,14,14,0,0,0,27.76.56a.5.5,0,0,1,.55.06l3,2.5a.5.5,0,0,1,0,.74c-.83.8-1.91,1.85-.9,3.92s2,5.11-.58,7.9c-1.45,1.55-5.48,1.72-7.42,1.8l-.42,0h-.27l-.77,0-1.21,0c-1.87,0-3,.27-3.36.82a.5.5,0,0,1-.41.22Z"></path><path fill="#222" d="M28,1l3,2.5c-.78.76-2.19,2.06-1,4.5s1.69,5-.5,7.33C28.06,16.86,23.43,16.93,22,17h-.24c-.48,0-1.2,0-2,0-1.49,0-3.18.15-3.78,1-.6-.89-2.24-1-3.7-1-.82,0-1.58.05-2.07.05H10c-1.43-.07-6.06-.14-7.5-1.67C.31,13,.81,10.45,2,8S1.78,4.26,1,3.5L4,1a14,14,0,0,0,6,1.5A14.59,14.59,0,0,0,16,1a14.73,14.73,0,0,0,6,1.5A14.42,14.42,0,0,0,28,1m0-1a1,1,0,0,0-.47.12A13.41,13.41,0,0,1,22,1.5,13.85,13.85,0,0,1,16.45.11a1,1,0,0,0-.91,0A13.7,13.7,0,0,1,10,1.5,13,13,0,0,1,4.47.12,1,1,0,0,0,3.36.23l-3,2.5A1,1,0,0,0,.3,4.22l0,0C1.1,5,2,5.82,1.11,7.56,0,9.75-1.05,13,1.77,16c1.4,1.49,4.56,1.82,7.76,2l.42,0h.28L11,18c.38,0,.81,0,1.26,0,2.22,0,2.75.43,2.87.61A1,1,0,0,0,16,19h0a1,1,0,0,0,.83-.44c.09-.14.59-.6,2.95-.6L21,18l.78,0h.3l.42,0c3.2-.14,6.36-.47,7.76-2,2.83-3,1.74-6.27.67-8.46-.85-1.75,0-2.57.76-3.3l0,0a1,1,0,0,0-.06-1.49l-3-2.5A1,1,0,0,0,28,0Z"></path></g><path fill="none" d="M0,0L32,0 32,20 0,20z"></path><path fill="none" d="M0,0L32,0 32,20 0,20z"></path></svg>