<svg xmlns="http://www.w3.org/2000/svg" viewBox="0 0 20 22" height="22" width="20"><title>us-interstate-2.svg</title><path fill="#ffffff" d="M17,1a7.74,7.74,0,0,1,2,4V7c0,9.28-9,12-9,12S1,16.37,1,7V5A7.41,7.41,0,0,1,3,1,4.07,4.07,0,0,0,6.53,3,4,4,0,0,0,10,1a4,4,0,0,0,3.46,2A4.08,4.08,0,0,0,17,1m0-1h-.15a1,1,0,0,0-.74.52A3.07,3.07,0,0,1,13.46,2,2.94,2.94,0,0,1,10.89.54,1,1,0,0,0,10,0h0a1,1,0,0,0-.89.55A3,3,0,0,1,6.53,2,3.07,3.07,0,0,1,3.85.53,1,1,0,0,0,3.12,0H3a1,1,0,0,0-.7.28A8.3,8.3,0,0,0,0,5V7C0,17,9.62,19.93,9.72,20a1,1,0,0,0,.57,0c.1,0,9.71-3,9.71-12.93V5A8.56,8.56,0,0,0,17.71.3,1,1,0,0,0,17,0Z"></path><path fill="#3b4ba6" d="M1,7c0,9.34,9,12,9,12s9-2.69,9-12V6H1Z"></path><path fill="#cc2929" d="M1,5A7.41,7.41,0,0,1,3,1,4.07,4.07,0,0,0,6.53,3,4,4,0,0,0,10,1a4,4,0,0,0,3.46,2A4.08,4.08,0,0,0,17,1a7.74,7.74,0,0,1,2,4Z"></path><path fill="#ffffff" d="M1,5L19,5 19,6 1,6z"></path><path fill="none" d="M0,0L20,0 20,22 0,22z"></path></svg>